<?xml version="1.0" encoding="UTF-8"?>
<!DOCTYPE svg PUBLIC "-//W3C//DTD SVG 1.1//EN" "http://www.w3.org/Graphics/SVG/1.1/DTD/svg11.dtd">
<!-- Creator: CorelDRAW -->
<svg xmlns="http://www.w3.org/2000/svg" xml:space="preserve" width="66.1458mm" height="66.1458mm" version="1.1" style="shape-rendering:geometricPrecision; text-rendering:geometricPrecision; image-rendering:optimizeQuality; fill-rule:evenodd; clip-rule:evenodd"
viewBox="0 0 6614.58 6614.58"
 xmlns:xlink="http://www.w3.org/1999/xlink"
 xmlns:xodm="http://www.corel.com/coreldraw/odm/2003">
 <defs>
  <style type="text/css">
   <![CDATA[
    .fil0 {fill:#FF5E32}
    .fil2 {fill:white}
    .fil1 {fill:white;fill-rule:nonzero}
   ]]>
  </style>
 </defs>
 <g id="Camada_x0020_1">
  <metadata id="CorelCorpID_0Corel-Layer"/>
  <rect class="fil0" x="-0.01" y="-0.01" width="6614.58" height="6614.58"/>
  <polygon class="fil1" points="1755.99,4179.16 1441.87,4579.21 1279.88,4179.16 1120.84,4179.16 982.55,4870.61 1162.33,4870.61 1235.43,4506.12 1360.87,4802.45 1446.81,4802.45 1676.96,4506.12 1605.84,4870.61 1786.61,4870.61 1922.92,4179.16 "/>
  <path id="_1" class="fil1" d="M2521.51 4561.43c0,-140.26 -100.75,-235.09 -263.73,-235.09 -192.62,0 -324,131.38 -324,309.18 0,149.15 112.61,243.98 284.49,243.98 80.99,0 161,-19.76 228.17,-69.14l-78.03 -117.55c-35.56,28.65 -81.99,43.46 -129.4,43.46 -74.08,0 -114.58,-27.66 -121.5,-86.92l393.14 0c5.92,-26.67 10.86,-56.31 10.86,-87.92zm-272.62 -101.74c60.25,0 100.75,33.59 99.76,90.88l-220.27 0c17.78,-53.34 57.29,-90.88 120.51,-90.88z"/>
  <path id="_2" class="fil1" d="M2987.74 4326.34c-59.26,0 -120.51,19.76 -167.92,64.21l10.87 -55.32 -177.81 0 -106.68 535.38 187.68 0 53.34 -264.73c16.8,-81.98 61.25,-120.5 125.45,-120.5 50.38,0 74.08,24.69 74.08,71.12 0,10.86 -0.98,22.71 -3.95,35.56l-55.31 278.55 187.68 0 59.26 -296.33c4.94,-23.71 6.92,-45.44 6.92,-66.19 0,-119.52 -79.03,-181.75 -193.61,-181.75z"/>
  <path id="_3" class="fil1" d="M3715.73 4335.23l-53.34 264.73c-15.8,81 -60.25,119.52 -123.47,119.52 -48.4,0 -72.11,-24.69 -72.11,-70.13 0,-10.87 0.99,-22.72 3.95,-36.55l55.32 -277.57 -187.68 0 -59.27 295.35c-4.94,23.71 -6.91,45.44 -6.91,66.18 0,120.51 78.03,182.74 191.63,182.74 58.28,0 118.53,-19.76 165.94,-64.21l-10.86 55.32 177.8 0 106.68 -535.38 -187.68 0z"/>
  <polygon id="_4" class="fil1" points="3946.87,4661.2 4234.31,4661.2 4262.96,4516.98 3975.51,4516.98 "/>
  <path id="_5" class="fil1" d="M4607.7 4879.5c191.63,0 328.93,-132.36 328.93,-310.16 0,-147.18 -109.65,-243 -280.53,-243 -191.63,0 -328.93,132.37 -328.93,309.18 0,147.18 109.64,243.98 280.53,243.98zm10.86 -151.13c-64.2,0 -100.75,-39.51 -100.75,-101.74 0,-89.89 52.35,-150.14 127.42,-150.14 64.21,0 100.76,40.49 100.76,102.72 0,88.91 -52.36,149.16 -127.43,149.16z"/>
  <path id="_6" class="fil1" d="M5408.78 4326.34c-59.26,0 -120.51,19.76 -167.92,64.21l10.87 -55.32 -177.81 0 -106.68 535.38 187.68 0 53.34 -264.73c16.8,-81.98 61.25,-120.5 125.45,-120.5 50.38,0 74.08,24.69 74.08,71.12 0,10.86 -0.98,22.71 -3.95,35.56l-55.31 278.55 187.68 0 59.26 -296.33c4.94,-23.71 6.92,-45.44 6.92,-66.19 0,-119.52 -79.03,-181.75 -193.61,-181.75z"/>
  <g id="Logo">
   <path class="fil2" d="M5521.26 3660.86c-1725.1,0 -2920.14,0 -4612.69,0 666.96,-169.22 399.17,-99.74 869.56,-227.84 74.71,-166.03 87.58,-186.04 162.74,-325.49l-320.98 0c211.3,-56.11 194.79,-49.11 386.08,-97.65 93.01,-100.74 162.75,-186.91 260.39,-260.39l-504.51 -16.27c599.69,-171.84 164.28,-74.1 895.1,-244.12 115.4,-82.15 148.99,-109.91 240.67,-147.84l-240.67 -14.91c260.39,-97.65 854.49,-221.94 1148.72,-249.07 -71.93,-178.48 -221.92,-270.71 314.58,-270.7 92.44,6.73 126.39,119.73 164.15,226.83 1236.86,-32.55 1594.91,683.53 1236.86,1627.45zm-585.88 -1334.51c97.65,162.75 455.69,292.94 358.05,1171.77l130.19 0c130.19,-520.79 65.1,-1074.12 -488.24,-1171.77l0 0z"/>
   <polygon class="fil2" points="5521.26,3856.16 5521.26,3725.95 931.85,3725.95 "/>
  </g>
 </g>
</svg>
